<?xml version="1.0" encoding="UTF-8" standalone="no"?>
<!-- Generated by graphviz version 14.0.4 (20251117.0720)
 -->

<!-- Title: snakemake_dag Pages: 1 -->

<svg
   width="352.5pt"
   height="495pt"
   viewBox="0 0 352.5 495"
   version="1.1"
   id="svg45"
   sodipodi:docname="dag.svg"
   inkscape:version="1.4.2 (2aeb623e1d, 2025-05-12)"
   xmlns:inkscape="http://www.inkscape.org/namespaces/inkscape"
   xmlns:sodipodi="http://sodipodi.sourceforge.net/DTD/sodipodi-0.dtd"
   xmlns="http://www.w3.org/2000/svg"
   xmlns:svg="http://www.w3.org/2000/svg">
  <defs
     id="defs45" />
  <sodipodi:namedview
     id="namedview45"
     pagecolor="#505050"
     bordercolor="#eeeeee"
     borderopacity="1"
     inkscape:showpageshadow="0"
     inkscape:pageopacity="0"
     inkscape:pagecheckerboard="0"
     inkscape:deskcolor="#505050"
     inkscape:document-units="pt"
     showgrid="false"
     inkscape:zoom="0.92863636"
     inkscape:cx="404.35634"
     inkscape:cy="321.43906"
     inkscape:window-width="1534"
     inkscape:window-height="931"
     inkscape:window-x="0"
     inkscape:window-y="0"
     inkscape:window-maximized="1"
     inkscape:current-layer="graph0"
     showguides="true">
    <sodipodi:guide
       position="97.481607,389.50075"
       orientation="0,-1"
       id="guide45"
       inkscape:locked="false" />
    <sodipodi:guide
       position="145.6369,362.36418"
       orientation="1,0"
       id="guide46"
       inkscape:locked="false" />
    <sodipodi:guide
       position="223.97758,389.50075"
       orientation="0,-1"
       id="guide47"
       inkscape:locked="false" />
  </sodipodi:namedview>
  <g
     id="graph0"
     class="graph"
     transform="translate(-183.10907,485.99926)">
    <title
       id="title1">snakemake_dag</title>
    <polygon
       fill="#ffffff"
       stroke="none"
       points="557.88,-545.5 557.88,4 -4,4 -4,-545.5 "
       id="polygon1"
       transform="matrix(0.62735815,0,0,0.90081893,185.6185,5.3974642)" />
    <g
       id="edge17-6-6-7-3"
       class="edge"
       transform="translate(-1.300444,-1.2300108)">
      <title
         id="title14-7-2-0-1">4-&gt;11</title>
      <path
         fill="none"
         stroke="#808080"
         stroke-width="2"
         d="m 252.37,-287.77 v 21.74"
         id="path14-5-9-9-9"
         sodipodi:nodetypes="cc" />
      <polygon
         fill="#808080"
         stroke="#808080"
         stroke-width="2"
         points="248.87,-266.14 255.87,-266.34 252.65,-256.24 "
         id="polygon14-3-1-3-4"
         transform="rotate(2,252.41334,-261.27388)" />
    </g>
    <!-- 0 -->
    <g
       id="node1"
       class="node">
      <title
         id="title2">0</title>
      <path
         fill="none"
         stroke="#d8ac56"
         stroke-width="2"
         d="m 382.25,-36 c 0,0 -30,0 -30,0 -6,0 -12,6 -12,12 0,0 0,12 0,12 0,6 6,12 12,12 0,0 30,0 30,0 6,0 12,-6 12,-12 0,0 0,-12 0,-12 0,-6 -6,-12 -12,-12"
         id="path2" />
      <text
         xml:space="preserve"
         text-anchor="middle"
         x="367.25"
         y="-15.62"
         font-family="sans"
         font-size="10px"
         id="text2">all</text>
    </g>
    <!-- 1 -->
    <g
       id="node2"
       class="node">
      <title
         id="title3">1</title>
      <path
         fill="none"
         stroke="#d85656"
         stroke-width="2"
         d="m 294.12,-108 c 0,0 -85.74,0 -85.74,0 -6,0 -12,6 -12,12 0,0 0,12 0,12 0,6 6,12 12,12 0,0 85.74,0 85.74,0 6,0 12,-6 12,-12 0,0 0,-12 0,-12 0,-6 -6,-12 -12,-12"
         id="path3" />
      <text
         xml:space="preserve"
         text-anchor="middle"
         x="251.25"
         y="-87.620003"
         font-family="sans"
         font-size="10px"
         id="text3">aggregrate_barcode</text>
    </g>
    <!-- 1&#45;&gt;0 -->
    <g
       id="edge1"
       class="edge">
      <title
         id="title4">1-&gt;0</title>
      <path
         fill="none"
         stroke="#808080"
         stroke-width="2"
         d="m 280.82,-71.15 c 14.48,8.73 32.09,19.36 47.63,28.74"
         id="path4" />
      <polygon
         fill="#808080"
         stroke="#808080"
         stroke-width="2"
         points="326.37,-39.58 329.98,-45.58 336.74,-37.41 "
         id="polygon4" />
    </g>
    <!-- 2 -->
    <!-- 2&#45;&gt;1 -->
    <!-- 3 -->
    <!-- 3&#45;&gt;2 -->
    <!-- 4 -->
    <g
       id="node5"
       class="node">
      <title
         id="title9">4</title>
      <path
         fill="none"
         stroke="#d6d856"
         stroke-width="2"
         d="m 282.12,-324.5 c 0,0 -61.74,0 -61.74,0 -6,0 -12,6 -12,12 0,0 0,12 0,12 0,6 6,12 12,12 0,0 61.74,0 61.74,0 6,0 12,-6 12,-12 0,0 0,-12 0,-12 0,-6 -6,-12 -12,-12"
         id="path9" />
      <text
         xml:space="preserve"
         text-anchor="middle"
         x="251.25"
         y="-304.12"
         font-family="sans"
         font-size="10px"
         id="text9">dorado_demux</text>
    </g>
    <!-- 4&#45;&gt;3 -->
    <!-- 9 -->
    <!-- 4&#45;&gt;9 -->
    <!-- 11 -->
    <g
       id="node12"
       class="node">
      <title
         id="title13">11</title>
      <path
         fill="none"
         stroke="#d88556"
         stroke-width="2"
         d="m 284.5,-252.5 c 0,0 -62.5,0 -62.5,0 -6,0 -12,6 -12,12 0,0 0,12.5 0,12.5 0,6 6,12 12,12 0,0 62.5,0 62.5,0 6,0 12,-6 12,-12 0,0 0,-12.5 0,-12.5 0,-6 -6,-12 -12,-12"
         id="path13" />
      <text
         xml:space="preserve"
         text-anchor="middle"
         x="253.25"
         y="-231.5"
         font-family="sans"
         font-size="10px"
         id="text13">aggregrate_file</text>
    </g>
    <!-- 4&#45;&gt;11 -->
    <g
       id="edge17-6"
       class="edge"
       transform="translate(74.775916,-150.45123)">
      <title
         id="title14-7">4-&gt;11</title>
      <path
         fill="none"
         stroke="#808080"
         stroke-width="2"
         d="m 252.37,-287.77 v 21.74"
         id="path14-5"
         sodipodi:nodetypes="cc" />
      <polygon
         fill="#808080"
         stroke="#808080"
         stroke-width="2"
         points="255.87,-266.34 252.65,-256.24 248.87,-266.14 "
         id="polygon14-3"
         transform="rotate(2,252.41334,-261.27388)" />
    </g>
    <g
       id="edge17-6-6-2"
       class="edge"
       transform="rotate(-47.011632,221.36222,-426.59482)">
      <title
         id="title14-7-2-2">4-&gt;11</title>
      <path
         fill="none"
         stroke="#808080"
         stroke-width="2"
         d="M 252.96571,-304.7301 252.37,-266.03"
         id="path14-5-9-8"
         sodipodi:nodetypes="cc" />
      <polygon
         fill="#808080"
         stroke="#808080"
         stroke-width="2"
         points="252.65,-256.24 248.87,-266.14 255.87,-266.34 "
         id="polygon14-3-1-9"
         transform="rotate(2,252.41334,-261.27388)" />
    </g>
    <g
       id="edge17-6-6-2-3"
       class="edge"
       transform="matrix(-0.68184987,-0.73149214,-0.73149214,0.68184987,274.37309,26.203527)">
      <title
         id="title14-7-2-2-6">4-&gt;11</title>
      <path
         fill="none"
         stroke="#808080"
         stroke-width="2"
         d="M 252.96571,-304.7301 252.37,-266.03"
         id="path14-5-9-8-1"
         sodipodi:nodetypes="cc" />
      <polygon
         fill="#808080"
         stroke="#808080"
         stroke-width="2"
         points="255.87,-266.34 252.65,-256.24 248.87,-266.14 "
         id="polygon14-3-1-9-2"
         transform="rotate(2,252.41334,-261.27388)" />
    </g>
    <g
       id="edge17-6-6-7"
       class="edge"
       transform="translate(161.19956,-1.2300108)">
      <title
         id="title14-7-2-0">4-&gt;11</title>
      <path
         fill="none"
         stroke="#808080"
         stroke-width="2"
         d="m 252.37,-287.77 v 21.74"
         id="path14-5-9-9"
         sodipodi:nodetypes="cc" />
      <polygon
         fill="#808080"
         stroke="#808080"
         stroke-width="2"
         points="248.87,-266.14 255.87,-266.34 252.65,-256.24 "
         id="polygon14-3-1-3"
         transform="rotate(2,252.41334,-261.27388)" />
    </g>
    <!-- 13 -->
    <g
       id="node14"
       class="node">
      <title
         id="title15">13</title>
    </g>
    <!-- 4&#45;&gt;13 -->
    <!-- 5 -->
    <!-- 5&#45;&gt;4 -->
    <!-- 7 -->
    <g
       id="node8"
       class="node"
       transform="translate(93.5,71.999999)">
      <title
         id="title19">7</title>
      <path
         fill="none"
         stroke="#80d856"
         stroke-width="2"
         d="m 356.75,-396.5 c 0,0 -73,0 -73,0 -6,0 -12,6 -12,12 0,0 0,12 0,12 0,6 6,12 12,12 0,0 73,0 73,0 6,0 12,-6 12,-12 0,0 0,-12 0,-12 0,-6 -6,-12 -12,-12"
         id="path19" />
      <text
         xml:space="preserve"
         text-anchor="middle"
         x="320.25"
         y="-376.12"
         font-family="sans"
         font-size="10px"
         id="text19">dorado_summary</text>
    </g>
    <!-- 5&#45;&gt;7 -->
    <!-- 6 -->
    <g
       id="node7"
       class="node"
       transform="translate(-21.92364,66)">
      <title
         id="title21">6</title>
      <path
         fill="none"
         stroke="#59d856"
         stroke-width="2"
         d="m 388.38,-541.5 c 0,0 -78.26,0 -78.26,0 -6,0 -12,6 -12,12 0,0 0,12.5 0,12.5 0,6 6,12 12,12 0,0 78.26,0 78.26,0 6,0 12,-6 12,-12 0,0 0,-12.5 0,-12.5 0,-6 -6,-12 -12,-12"
         id="path21" />
      <text
         xml:space="preserve"
         text-anchor="middle"
         x="349.25"
         y="-520.5"
         font-family="sans"
         font-size="10px"
         id="text21">download_model</text>
    </g>
    <!-- 6&#45;&gt;5 -->
    <!-- 17 -->
    <!-- 6&#45;&gt;17 -->
    <!-- 7&#45;&gt;4 -->
    <!-- 15 -->
    <g
       id="node16"
       class="node"
       transform="translate(-25.5,71.999999)">
      <title
         id="title26">15</title>
      <path
         fill="none"
         stroke="#56d8d8"
         stroke-width="2"
         d="m 477.62,-324.5 c 0,0 -76.74,0 -76.74,0 -6,0 -12,6 -12,12 0,0 0,12 0,12 0,6 6,12 12,12 0,0 76.74,0 76.74,0 6,0 12,-6 12,-12 0,0 0,-12 0,-12 0,-6 -6,-12 -12,-12"
         id="path26" />
      <text
         xml:space="preserve"
         text-anchor="middle"
         x="439.25"
         y="-304.12"
         font-family="sans"
         font-size="10px"
         id="text26">prepare_summary</text>
    </g>
    <!-- 7&#45;&gt;15 -->
    <!-- 8 -->
    <!-- 8&#45;&gt;1 -->
    <!-- 9&#45;&gt;8 -->
    <!-- 10 -->
    <g
       id="node11"
       class="node">
      <title
         id="title31">10</title>
      <path
         fill="none"
         stroke="#56d882"
         stroke-width="2"
         d="m 267.25,-180 c 0,0 -30,0 -30,0 -6,0 -12,6 -12,12 0,0 0,12 0,12 0,6 6,12 12,12 0,0 30,0 30,0 6,0 12,-6 12,-12 0,0 0,-12 0,-12 0,-6 -6,-12 -12,-12"
         id="path31" />
      <text
         xml:space="preserve"
         text-anchor="middle"
         x="252.25"
         y="-159.62"
         font-family="sans"
         font-size="10px"
         id="text31">gzip</text>
    </g>
    <!-- 10&#45;&gt;1 -->
    <g
       id="edge6"
       class="edge">
      <title
         id="title32">10-&gt;1</title>
      <path
         fill="none"
         stroke="#808080"
         stroke-width="2"
         d="m 252,-143.34 c -0.1,6.59 -0.21,14.26 -0.31,21.67"
         id="path32" />
      <polygon
         fill="#808080"
         stroke="#808080"
         stroke-width="2"
         points="248.19,-121.98 255.19,-121.88 251.55,-111.93 "
         id="polygon32" />
    </g>
    <!-- 11&#45;&gt;10 -->
    <g
       id="edge16"
       class="edge">
      <title
         id="title33">11-&gt;10</title>
      <path
         fill="none"
         stroke="#808080"
         stroke-width="2"
         d="m 252.99,-215.16 c -0.09,6.52 -0.2,14.08 -0.3,21.39"
         id="path33" />
      <polygon
         fill="#808080"
         stroke="#808080"
         stroke-width="2"
         points="249.19,-193.86 256.19,-193.76 252.55,-183.81 "
         id="polygon33" />
    </g>
    <!-- 12 -->
    <!-- 12&#45;&gt;1 -->
    <!-- 13&#45;&gt;12 -->
    <!-- 14 -->
    <g
       id="node15"
       class="node">
      <title
         id="title37">14</title>
      <path
         fill="none"
         stroke="#56a9d8"
         stroke-width="2"
         d="m 398.12,-108 c 0,0 -61.74,0 -61.74,0 -6,0 -12,6 -12,12 0,0 0,12 0,12 0,6 6,12 12,12 0,0 61.74,0 61.74,0 6,0 12,-6 12,-12 0,0 0,-12 0,-12 0,-6 -6,-12 -12,-12"
         id="path37" />
      <text
         xml:space="preserve"
         text-anchor="middle"
         x="367.25"
         y="-87.620003"
         font-family="sans"
         font-size="10px"
         id="text37">pycoQC_report</text>
    </g>
    <!-- 14&#45;&gt;0 -->
    <g
       id="edge2"
       class="edge">
      <title
         id="title38">14-&gt;0</title>
      <path
         fill="none"
         stroke="#808080"
         stroke-width="2"
         d="m 367.25,-71.34 c 0,6.59 0,14.26 0,21.67"
         id="path38" />
      <polygon
         fill="#808080"
         stroke="#808080"
         stroke-width="2"
         points="363.75,-49.93 370.75,-49.93 367.25,-39.93 "
         id="polygon38" />
    </g>
    <!-- 15&#45;&gt;14 -->
    <g
       id="edge20"
       class="edge">
      <title
         id="title39">15-&gt;14</title>
      <path
         fill="none"
         stroke="#808080"
         stroke-width="2"
         d="m 412.57,-217.14 -34.9,96.33"
         id="path39"
         sodipodi:nodetypes="cc" />
      <polygon
         fill="#808080"
         stroke="#808080"
         stroke-width="2"
         points="381.07,-119.92 374.47,-111.63 374.46,-122.22 "
         id="polygon39"
         transform="translate(0.5047724,-1.5143173)" />
    </g>
    <!-- 18 -->
    <g
       id="node19"
       class="node">
      <title
         id="title40">18</title>
      <path
         fill="none"
         stroke="#56d8a9"
         stroke-width="2"
         d="m 508.12,-108 c 0,0 -67.74,0 -67.74,0 -6,0 -12,6 -12,12 0,0 0,12 0,12 0,6 6,12 12,12 0,0 67.74,0 67.74,0 6,0 12,-6 12,-12 0,0 0,-12 0,-12 0,-6 -6,-12 -12,-12"
         id="path40" />
      <text
         xml:space="preserve"
         text-anchor="middle"
         x="474.25"
         y="-87.620003"
         font-family="sans"
         font-size="10px"
         id="text40">nanoplot_report</text>
    </g>
    <!-- 15&#45;&gt;18 -->
    <g
       id="edge25"
       class="edge">
      <title
         id="title41">15-&gt;18</title>
      <path
         fill="none"
         stroke="#808080"
         stroke-width="2"
         d="m 421.17,-217.08 48.11,95.6"
         id="path41"
         sodipodi:nodetypes="cc" />
      <polygon
         fill="#808080"
         stroke="#808080"
         stroke-width="2"
         points="470.87,-111.7 465.81,-121.01 472.72,-122.14 "
         id="polygon41"
         transform="matrix(0.96216417,-0.25781111,0.25781111,0.96216417,48.761256,115.86047)" />
    </g>
    <!-- 16 -->
    <!-- 16&#45;&gt;15 -->
    <!-- 17&#45;&gt;16 -->
    <!-- 18&#45;&gt;0 -->
    <g
       id="edge3"
       class="edge">
      <title
         id="title45">18-&gt;0</title>
      <path
         fill="none"
         stroke="#808080"
         stroke-width="2"
         d="m 446.97,-71.15 c -12.7,8.31 -28.02,18.33 -41.83,27.36"
         id="path45" />
      <polygon
         fill="#808080"
         stroke="#808080"
         stroke-width="2"
         points="403.46,-46.87 407.3,-41.02 397.01,-38.47 "
         id="polygon45" />
    </g>
    <g
       id="node6"
       class="node"
       transform="translate(84.57636,66)">
      <title
         id="title17">5</title>
      <path
         fill="none"
         stroke="#afd856"
         stroke-width="2"
         d="m 283.88,-469 h -81.26 c -6,0 -12,6 -12,12 v 12.5 c 0,6 6,12 12,12 h 81.26 c 6,0 12,-6 12,-12 V -457 c 0,-6 -6,-12 -12,-12"
         id="path17"
         sodipodi:nodetypes="csssssssc" />
      <text
         xml:space="preserve"
         text-anchor="middle"
         x="243.25"
         y="-448"
         font-family="sans"
         font-size="10px"
         id="text17">dorado_simplex</text>
    </g>
  </g>
</svg>
