<?xml version="1.0" encoding="UTF-8" standalone="no"?>
<!DOCTYPE svg PUBLIC "-//W3C//DTD SVG 1.1//EN"
 "http://www.w3.org/Graphics/SVG/1.1/DTD/svg11.dtd">
<!-- Generated by graphviz version 2.43.0 (0)
 -->
<!-- Title: snakemake_dag Pages: 1 -->
<svg width="344pt" height="548pt"
 viewBox="0.00 0.00 343.50 548.00" xmlns="http://www.w3.org/2000/svg" xmlns:xlink="http://www.w3.org/1999/xlink">
<g id="graph0" class="graph" transform="scale(1 1) rotate(0) translate(4 544)">
<title>snakemake_dag</title>
<polygon fill="white" stroke="transparent" points="-4,4 -4,-544 339.5,-544 339.5,4 -4,4"/>
<!-- 0 -->
<g id="node1" class="node">
<title>0</title>
<path fill="none" stroke="#d8a456" stroke-width="2" d="M193.5,-36C193.5,-36 163.5,-36 163.5,-36 157.5,-36 151.5,-30 151.5,-24 151.5,-24 151.5,-12 151.5,-12 151.5,-6 157.5,0 163.5,0 163.5,0 193.5,0 193.5,0 199.5,0 205.5,-6 205.5,-12 205.5,-12 205.5,-24 205.5,-24 205.5,-30 199.5,-36 193.5,-36"/>
<text text-anchor="middle" x="178.5" y="-15.5" font-family="sans" font-size="10.00">all</text>
</g>
<!-- 1 -->
<g id="node2" class="node">
<title>1</title>
<path fill="none" stroke="#d85656" stroke-width="2" d="M103.5,-108C103.5,-108 13.5,-108 13.5,-108 7.5,-108 1.5,-102 1.5,-96 1.5,-96 1.5,-84 1.5,-84 1.5,-78 7.5,-72 13.5,-72 13.5,-72 103.5,-72 103.5,-72 109.5,-72 115.5,-78 115.5,-84 115.5,-84 115.5,-96 115.5,-96 115.5,-102 109.5,-108 103.5,-108"/>
<text text-anchor="middle" x="58.5" y="-87.5" font-family="sans" font-size="10.00">aggregrate_barcode</text>
</g>
<!-- 1&#45;&gt;0 -->
<g id="edge2" class="edge">
<title>1&#45;&gt;0</title>
<path fill="none" stroke="grey" stroke-width="2" d="M87.86,-71.88C104.4,-62.23 125.19,-50.1 142.69,-39.89"/>
<polygon fill="grey" stroke="grey" stroke-width="2" points="144.63,-42.81 151.5,-34.75 141.1,-36.77 144.63,-42.81"/>
</g>
<!-- 2 -->
<g id="node3" class="node">
<title>2</title>
<path fill="none" stroke="#56d892" stroke-width="2" d="M74.5,-180C74.5,-180 44.5,-180 44.5,-180 38.5,-180 32.5,-174 32.5,-168 32.5,-168 32.5,-156 32.5,-156 32.5,-150 38.5,-144 44.5,-144 44.5,-144 74.5,-144 74.5,-144 80.5,-144 86.5,-150 86.5,-156 86.5,-156 86.5,-168 86.5,-168 86.5,-174 80.5,-180 74.5,-180"/>
<text text-anchor="middle" x="59.5" y="-159.5" font-family="sans" font-size="10.00">gzip</text>
</g>
<!-- 2&#45;&gt;1 -->
<g id="edge4" class="edge">
<title>2&#45;&gt;1</title>
<path fill="none" stroke="grey" stroke-width="2" d="M59.25,-143.7C59.14,-135.98 59.01,-126.71 58.89,-118.11"/>
<polygon fill="grey" stroke="grey" stroke-width="2" points="62.39,-118.05 58.74,-108.1 55.39,-118.15 62.39,-118.05"/>
</g>
<!-- 3 -->
<g id="node4" class="node">
<title>3</title>
<path fill="none" stroke="#d87d56" stroke-width="2" d="M94.5,-252C94.5,-252 28.5,-252 28.5,-252 22.5,-252 16.5,-246 16.5,-240 16.5,-240 16.5,-228 16.5,-228 16.5,-222 22.5,-216 28.5,-216 28.5,-216 94.5,-216 94.5,-216 100.5,-216 106.5,-222 106.5,-228 106.5,-228 106.5,-240 106.5,-240 106.5,-246 100.5,-252 94.5,-252"/>
<text text-anchor="middle" x="61.5" y="-231.5" font-family="sans" font-size="10.00">aggregrate_file</text>
</g>
<!-- 3&#45;&gt;2 -->
<g id="edge5" class="edge">
<title>3&#45;&gt;2</title>
<path fill="none" stroke="grey" stroke-width="2" d="M61.01,-215.7C60.79,-207.98 60.52,-198.71 60.27,-190.11"/>
<polygon fill="grey" stroke="grey" stroke-width="2" points="63.77,-190 59.99,-180.1 56.78,-190.2 63.77,-190"/>
</g>
<!-- 4 -->
<g id="node5" class="node">
<title>4</title>
<path fill="none" stroke="#56d86b" stroke-width="2" d="M159.5,-540C159.5,-540 83.5,-540 83.5,-540 77.5,-540 71.5,-534 71.5,-528 71.5,-528 71.5,-516 71.5,-516 71.5,-510 77.5,-504 83.5,-504 83.5,-504 159.5,-504 159.5,-504 165.5,-504 171.5,-510 171.5,-516 171.5,-516 171.5,-528 171.5,-528 171.5,-534 165.5,-540 159.5,-540"/>
<text text-anchor="middle" x="121.5" y="-519.5" font-family="sans" font-size="10.00">download_model</text>
</g>
<!-- 7 -->
<g id="node8" class="node">
<title>7</title>
<path fill="none" stroke="#8fd856" stroke-width="2" d="M157,-468C157,-468 86,-468 86,-468 80,-468 74,-462 74,-456 74,-456 74,-444 74,-444 74,-438 80,-432 86,-432 86,-432 157,-432 157,-432 163,-432 169,-438 169,-444 169,-444 169,-456 169,-456 169,-462 163,-468 157,-468"/>
<text text-anchor="middle" x="121.5" y="-447.5" font-family="sans" font-size="10.00">dorado_simplex</text>
</g>
<!-- 4&#45;&gt;7 -->
<g id="edge9" class="edge">
<title>4&#45;&gt;7</title>
<path fill="none" stroke="grey" stroke-width="2" d="M121.5,-503.7C121.5,-495.98 121.5,-486.71 121.5,-478.11"/>
<polygon fill="grey" stroke="grey" stroke-width="2" points="125,-478.1 121.5,-468.1 118,-478.1 125,-478.1"/>
</g>
<!-- 5 -->
<g id="node6" class="node">
<title>5</title>
<path fill="none" stroke="#d8cb56" stroke-width="2" d="M117,-324C117,-324 12,-324 12,-324 6,-324 0,-318 0,-312 0,-312 0,-300 0,-300 0,-294 6,-288 12,-288 12,-288 117,-288 117,-288 123,-288 129,-294 129,-300 129,-300 129,-312 129,-312 129,-318 123,-324 117,-324"/>
<text text-anchor="middle" x="64.5" y="-303.5" font-family="sans" font-size="10.00">collect_demuxed_fastq</text>
</g>
<!-- 5&#45;&gt;3 -->
<g id="edge6" class="edge">
<title>5&#45;&gt;3</title>
<path fill="none" stroke="grey" stroke-width="2" d="M63.76,-287.7C63.43,-279.98 63.03,-270.71 62.66,-262.11"/>
<polygon fill="grey" stroke="grey" stroke-width="2" points="66.16,-261.95 62.23,-252.1 59.16,-262.25 66.16,-261.95"/>
</g>
<!-- 6 -->
<g id="node7" class="node">
<title>6</title>
<path fill="none" stroke="#b6d856" stroke-width="2" d="M98,-396C98,-396 33,-396 33,-396 27,-396 21,-390 21,-384 21,-384 21,-372 21,-372 21,-366 27,-360 33,-360 33,-360 98,-360 98,-360 104,-360 110,-366 110,-372 110,-372 110,-384 110,-384 110,-390 104,-396 98,-396"/>
<text text-anchor="middle" x="65.5" y="-375.5" font-family="sans" font-size="10.00">dorado_demux</text>
</g>
<!-- 6&#45;&gt;5 -->
<g id="edge7" class="edge">
<title>6&#45;&gt;5</title>
<path fill="none" stroke="grey" stroke-width="2" d="M65.25,-359.7C65.14,-351.98 65.01,-342.71 64.89,-334.11"/>
<polygon fill="grey" stroke="grey" stroke-width="2" points="68.39,-334.05 64.74,-324.1 61.39,-334.15 68.39,-334.05"/>
</g>
<!-- 7&#45;&gt;6 -->
<g id="edge8" class="edge">
<title>7&#45;&gt;6</title>
<path fill="none" stroke="grey" stroke-width="2" d="M107.66,-431.7C101.01,-423.39 92.92,-413.28 85.61,-404.14"/>
<polygon fill="grey" stroke="grey" stroke-width="2" points="88.16,-401.73 79.18,-396.1 82.7,-406.1 88.16,-401.73"/>
</g>
<!-- 10 -->
<g id="node11" class="node">
<title>10</title>
<path fill="none" stroke="#68d856" stroke-width="2" d="M217.5,-396C217.5,-396 139.5,-396 139.5,-396 133.5,-396 127.5,-390 127.5,-384 127.5,-384 127.5,-372 127.5,-372 127.5,-366 133.5,-360 139.5,-360 139.5,-360 217.5,-360 217.5,-360 223.5,-360 229.5,-366 229.5,-372 229.5,-372 229.5,-384 229.5,-384 229.5,-390 223.5,-396 217.5,-396"/>
<text text-anchor="middle" x="178.5" y="-375.5" font-family="sans" font-size="10.00">dorado_summary</text>
</g>
<!-- 7&#45;&gt;10 -->
<g id="edge12" class="edge">
<title>7&#45;&gt;10</title>
<path fill="none" stroke="grey" stroke-width="2" d="M135.59,-431.7C142.42,-423.3 150.76,-413.07 158.26,-403.86"/>
<polygon fill="grey" stroke="grey" stroke-width="2" points="160.97,-406.07 164.57,-396.1 155.54,-401.65 160.97,-406.07"/>
</g>
<!-- 8 -->
<g id="node9" class="node">
<title>8</title>
<path fill="none" stroke="#56a9d8" stroke-width="2" d="M211,-108C211,-108 146,-108 146,-108 140,-108 134,-102 134,-96 134,-96 134,-84 134,-84 134,-78 140,-72 146,-72 146,-72 211,-72 211,-72 217,-72 223,-78 223,-84 223,-84 223,-96 223,-96 223,-102 217,-108 211,-108"/>
<text text-anchor="middle" x="178.5" y="-87.5" font-family="sans" font-size="10.00">pycoQC_report</text>
</g>
<!-- 8&#45;&gt;0 -->
<g id="edge3" class="edge">
<title>8&#45;&gt;0</title>
<path fill="none" stroke="grey" stroke-width="2" d="M178.5,-71.7C178.5,-63.98 178.5,-54.71 178.5,-46.11"/>
<polygon fill="grey" stroke="grey" stroke-width="2" points="182,-46.1 178.5,-36.1 175,-46.1 182,-46.1"/>
</g>
<!-- 9 -->
<g id="node10" class="node">
<title>9</title>
<path fill="none" stroke="#56d0d8" stroke-width="2" d="M219.5,-180C219.5,-180 137.5,-180 137.5,-180 131.5,-180 125.5,-174 125.5,-168 125.5,-168 125.5,-156 125.5,-156 125.5,-150 131.5,-144 137.5,-144 137.5,-144 219.5,-144 219.5,-144 225.5,-144 231.5,-150 231.5,-156 231.5,-156 231.5,-168 231.5,-168 231.5,-174 225.5,-180 219.5,-180"/>
<text text-anchor="middle" x="178.5" y="-159.5" font-family="sans" font-size="10.00">prepare_summary</text>
</g>
<!-- 9&#45;&gt;8 -->
<g id="edge10" class="edge">
<title>9&#45;&gt;8</title>
<path fill="none" stroke="grey" stroke-width="2" d="M178.5,-143.7C178.5,-135.98 178.5,-126.71 178.5,-118.11"/>
<polygon fill="grey" stroke="grey" stroke-width="2" points="182,-118.1 178.5,-108.1 175,-118.1 182,-118.1"/>
</g>
<!-- 11 -->
<g id="node12" class="node">
<title>11</title>
<path fill="none" stroke="#56d8b9" stroke-width="2" d="M323.5,-108C323.5,-108 253.5,-108 253.5,-108 247.5,-108 241.5,-102 241.5,-96 241.5,-96 241.5,-84 241.5,-84 241.5,-78 247.5,-72 253.5,-72 253.5,-72 323.5,-72 323.5,-72 329.5,-72 335.5,-78 335.5,-84 335.5,-84 335.5,-96 335.5,-96 335.5,-102 329.5,-108 323.5,-108"/>
<text text-anchor="middle" x="288.5" y="-87.5" font-family="sans" font-size="10.00">nanoplot_report</text>
</g>
<!-- 9&#45;&gt;11 -->
<g id="edge13" class="edge">
<title>9&#45;&gt;11</title>
<path fill="none" stroke="grey" stroke-width="2" d="M205.41,-143.88C219.66,-134.81 237.35,-123.55 252.74,-113.76"/>
<polygon fill="grey" stroke="grey" stroke-width="2" points="254.93,-116.51 261.49,-108.19 251.17,-110.61 254.93,-116.51"/>
</g>
<!-- 10&#45;&gt;9 -->
<g id="edge11" class="edge">
<title>10&#45;&gt;9</title>
<path fill="none" stroke="grey" stroke-width="2" d="M178.5,-359.85C178.5,-322.83 178.5,-235.18 178.5,-190.39"/>
<polygon fill="grey" stroke="grey" stroke-width="2" points="182,-190.23 178.5,-180.23 175,-190.23 182,-190.23"/>
</g>
<!-- 11&#45;&gt;0 -->
<g id="edge1" class="edge">
<title>11&#45;&gt;0</title>
<path fill="none" stroke="grey" stroke-width="2" d="M261.59,-71.88C247.34,-62.81 229.65,-51.55 214.26,-41.76"/>
<polygon fill="grey" stroke="grey" stroke-width="2" points="215.83,-38.61 205.51,-36.19 212.07,-44.51 215.83,-38.61"/>
</g>
</g>
</svg>
